<svg width="308" height="116" viewBox="0 0 308 116" fill="none" xmlns="http://www.w3.org/2000/svg">
<rect width="308" height="116" fill="#E4E4E4"/>
<g clip-path="url(#clip0_0_1)">
<rect width="430" height="932" transform="translate(-59 -115)" fill="#F9F9FB"/>
<path d="M62.7977 52.12C60.9577 51.9067 59.2777 51.7467 57.7577 51.64C56.2643 51.56 54.7843 51.52 53.3177 51.52C52.091 51.52 50.811 51.5333 49.4777 51.56C48.1443 51.6133 46.8643 51.68 45.6377 51.76C44.411 51.84 43.331 51.9333 42.3977 52.04C42.1043 51.2667 41.9043 50.28 41.7977 49.08C41.7177 47.88 41.7177 46.68 41.7977 45.48C41.8777 44.2533 42.051 43.2 42.3177 42.32C42.6377 42.16 42.9843 41.88 43.3577 41.48C43.7577 41.08 44.091 40.4133 44.3577 39.48C44.651 38.5467 44.7977 37.24 44.7977 35.56C44.7977 33.8 44.7177 32.3733 44.5577 31.28C44.3977 30.1867 44.1843 29.3467 43.9177 28.76C43.6777 28.1733 43.4243 27.7733 43.1577 27.56C42.9177 27.3467 42.7043 27.2267 42.5177 27.2C42.251 26.32 42.0643 25.28 41.9577 24.08C41.8777 22.8533 41.891 21.64 41.9977 20.44C42.131 19.24 42.3577 18.2533 42.6777 17.48C43.531 17.5867 44.3977 17.68 45.2777 17.76C46.1843 17.84 46.9843 17.9067 47.6777 17.96C48.371 17.9867 48.7977 18 48.9577 18C50.611 18 52.2377 17.9867 53.8377 17.96C55.4377 17.9067 56.7577 17.8533 57.7977 17.8C57.451 18.1733 57.1043 18.72 56.7577 19.44C56.4377 20.16 56.1977 20.8933 56.0377 21.64C55.8777 22.3867 55.851 23.0133 55.9577 23.52C56.3043 22.48 56.9043 21.4533 57.7577 20.44C58.6377 19.4 59.8377 18.5467 61.3577 17.88C62.8777 17.1867 64.7843 16.84 67.0777 16.84C70.0377 16.84 72.5443 17.4533 74.5977 18.68C76.651 19.9067 78.1977 21.6533 79.2377 23.92C80.3043 26.1867 80.8377 28.88 80.8377 32C80.8377 36.8267 79.8377 40.6 77.8377 43.32C75.8377 46.0133 72.8243 47.36 68.7977 47.36C67.0643 47.36 65.571 47.1467 64.3177 46.72C63.0643 46.32 61.971 45.7733 61.0377 45.08C60.1043 44.3867 59.251 43.6 58.4777 42.72L57.5977 43.52C58.371 44.3733 59.211 45.1467 60.1177 45.84C61.0243 46.5333 62.051 47.1067 63.1977 47.56C63.251 49.5867 63.1177 51.1067 62.7977 52.12ZM61.1577 33.92H63.3177V30.2H61.1577V33.92ZM99.9261 47.4C87.7394 47.4 81.6461 42.44 81.6461 32.52C81.6461 27.1067 83.1794 23.1333 86.2461 20.6C89.3394 18.0667 93.9661 16.8 100.126 16.8C106.659 16.8 111.406 18.0533 114.366 20.56C117.353 23.04 118.846 26.7067 118.846 31.56C118.846 37.0267 117.273 41.04 114.126 43.6C110.979 46.1333 106.246 47.4 99.9261 47.4ZM99.1661 34.28H101.326V29.92H99.1661V34.28ZM138.774 47.4C134.241 47.4 130.561 46.76 127.734 45.48C124.934 44.1733 122.881 42.36 121.574 40.04C120.294 37.6933 119.654 34.96 119.654 31.84C119.654 28.7467 120.267 26.0933 121.494 23.88C122.747 21.64 124.494 19.92 126.734 18.72C128.974 17.4933 131.587 16.88 134.574 16.88C137.481 16.88 139.734 17.3467 141.334 18.28C142.961 19.1867 143.814 20.9067 143.894 23.44C144.187 22.5067 144.294 21.5733 144.214 20.64C144.161 19.68 144.081 18.7467 143.974 17.84C144.854 17.84 145.854 17.8267 146.974 17.8C148.121 17.7733 149.294 17.7467 150.494 17.72C151.694 17.6667 152.827 17.6267 153.894 17.6C154.961 17.5733 155.867 17.56 156.614 17.56C156.774 18.28 156.894 19.2 156.974 20.32C157.081 21.4133 157.147 22.6133 157.174 23.92C157.201 25.2 157.174 26.4667 157.094 27.72C157.014 28.9733 156.894 30.0933 156.734 31.08C155.961 31.1867 154.974 31.28 153.774 31.36C152.574 31.4133 151.281 31.4533 149.894 31.48C148.507 31.5067 147.121 31.5067 145.734 31.48C144.347 31.4533 143.067 31.4133 141.894 31.36C140.747 31.28 139.827 31.1867 139.134 31.08L139.094 29.6H137.174V34.28H139.094V32.64C144.801 32.3733 150.761 32.3733 156.974 32.64C156.867 35.9733 156.187 38.7333 154.934 40.92C153.707 43.1067 151.787 44.7333 149.174 45.8C146.561 46.8667 143.094 47.4 138.774 47.4ZM158.776 46.68C158.563 46.1467 158.389 45.4667 158.256 44.64C158.123 43.7867 158.043 42.8933 158.016 41.96C158.016 41.0267 158.043 40.1467 158.096 39.32C158.176 38.4667 158.309 37.7733 158.496 37.24C158.896 37.08 159.283 36.8133 159.656 36.44C160.029 36.04 160.336 35.3733 160.576 34.44C160.816 33.48 160.936 32.1067 160.936 30.32C160.936 28.48 160.789 27.1067 160.496 26.2C160.229 25.2933 159.896 24.6667 159.496 24.32C159.123 23.9467 158.789 23.6933 158.496 23.56C158.256 23.1067 158.083 22.4667 157.976 21.64C157.869 20.7867 157.816 19.8667 157.816 18.88C157.843 17.8933 157.923 16.9467 158.056 16.04C158.189 15.1333 158.389 14.3867 158.656 13.8C159.429 13.8533 160.389 13.9333 161.536 14.04C162.683 14.1467 163.923 14.24 165.256 14.32C166.616 14.3733 167.936 14.4 169.216 14.4C171.109 14.4 172.829 14.3467 174.376 14.24C175.949 14.1067 177.296 13.9867 178.416 13.88C178.656 14.6267 178.829 15.3467 178.936 16.04C179.043 16.7067 179.096 17.3867 179.096 18.08C179.096 19.0667 178.963 20.2 178.696 21.48C178.456 22.76 178.203 24.04 177.936 25.32C177.669 26.6 177.536 27.7467 177.536 28.76V29.48C178.416 28.2 179.069 26.5867 179.496 24.64C179.949 22.6667 180.149 20.24 180.096 17.36C180.843 17.4133 181.643 17.4933 182.496 17.6C183.376 17.7067 184.456 17.8 185.736 17.88C187.016 17.96 188.616 18 190.536 18C192.109 18 193.403 17.96 194.416 17.88C195.429 17.8 196.309 17.72 197.056 17.64C197.829 17.5333 198.656 17.44 199.536 17.36C199.749 17.92 199.923 18.6267 200.056 19.48C200.189 20.3067 200.256 21.1867 200.256 22.12C200.283 23.0533 200.256 23.9467 200.176 24.8C200.123 25.6267 200.003 26.32 199.816 26.88C198.483 27.2533 197.336 27.6667 196.376 28.12C195.443 28.5733 194.603 29.0667 193.856 29.6C194.523 31.6267 195.443 33.24 196.616 34.44C197.816 35.6133 199.083 36.5467 200.416 37.24C200.603 37.7733 200.723 38.4533 200.776 39.28C200.856 40.1067 200.883 40.9867 200.856 41.92C200.856 42.8267 200.789 43.7067 200.656 44.56C200.523 45.4133 200.349 46.12 200.136 46.68C199.043 46.5733 197.829 46.44 196.496 46.28C195.163 46.12 193.509 46.04 191.536 46.04C189.349 46.04 187.563 46.08 186.176 46.16C184.789 46.24 183.643 46.32 182.736 46.4C181.856 46.5067 181.043 46.6 180.296 46.68C180.376 45.72 180.443 44.84 180.496 44.04C180.549 43.2133 180.576 42.4533 180.576 41.76C180.576 40.64 180.523 39.6133 180.416 38.68C180.309 37.7467 180.043 36.8667 179.616 36.04C179.189 35.2133 178.496 34.4133 177.536 33.64V37.24H178.976C179.163 37.7733 179.283 38.4667 179.336 39.32C179.416 40.1467 179.443 41.0267 179.416 41.96C179.416 42.8933 179.349 43.7867 179.216 44.64C179.083 45.4667 178.909 46.1467 178.696 46.68C177.576 46.5733 176.176 46.44 174.496 46.28C172.843 46.1467 171.083 46.08 169.216 46.08C167.936 46.08 166.629 46.1067 165.296 46.16C163.989 46.24 162.763 46.32 161.616 46.4C160.469 46.5067 159.523 46.6 158.776 46.68ZM219.581 47.36C215.234 47.36 211.688 46.76 208.941 45.56C206.221 44.3333 204.221 42.5867 202.941 40.32C201.661 38.0533 201.021 35.32 201.021 32.12C201.021 28.44 201.701 25.48 203.061 23.24C204.448 21 206.594 19.3733 209.501 18.36C212.408 17.32 216.154 16.8 220.741 16.8C224.154 16.8 227.194 17.16 229.861 17.88C232.554 18.6 234.674 19.6667 236.221 21.08C237.768 22.4667 238.541 24.1867 238.541 26.24C238.541 26.9867 238.421 27.7467 238.181 28.52C237.968 29.2667 237.514 29.9467 236.821 30.56C236.128 31.1733 235.088 31.6667 233.701 32.04C232.314 32.4133 230.461 32.6 228.141 32.6C226.594 32.6 225.194 32.5867 223.941 32.56C222.714 32.5067 221.581 32.4267 220.541 32.32H218.541V35.28H220.501V33.68C226.154 33.4133 232.128 33.4133 238.421 33.68C238.421 36.64 237.781 39.1333 236.501 41.16C235.221 43.1867 233.208 44.7333 230.461 45.8C227.714 46.84 224.088 47.36 219.581 47.36ZM218.541 30.24H220.501V27.92H218.541V30.24ZM255.5 47.36C251.527 47.36 248.474 46.84 246.34 45.8C244.207 44.7333 242.82 43.16 242.18 41.08C241.887 40.1467 241.74 39.12 241.74 38C241.767 36.88 241.847 35.6133 241.98 34.2C242.114 32.7867 242.194 31.2133 242.22 29.48H239.62C239.487 28.7333 239.394 27.8933 239.34 26.96C239.287 26.0267 239.287 25.0933 239.34 24.16C239.394 23.2 239.487 22.3467 239.62 21.6C240.314 21.04 240.98 20.4933 241.62 19.96C242.287 19.4 242.874 18.7467 243.38 18C243.887 17.2533 244.234 16.2933 244.42 15.12C245.38 15.2533 246.54 15.3467 247.9 15.4C249.287 15.4533 250.754 15.48 252.3 15.48C253.874 15.4533 255.407 15.4133 256.9 15.36C258.394 15.28 259.714 15.1867 260.86 15.08C261.02 15.5867 261.154 16.0933 261.26 16.6C261.367 17.1067 261.447 17.6 261.5 18.08H270.22C270.354 18.56 270.447 19.28 270.5 20.24C270.554 21.2 270.554 22.2133 270.5 23.28C270.474 24.32 270.38 25.2133 270.22 25.96L259.18 26V34.36H260.34L260.38 27.44C260.967 27.2267 261.687 27.0667 262.54 26.96C263.42 26.8267 264.34 26.76 265.3 26.76C266.26 26.76 267.18 26.8267 268.06 26.96C268.94 27.0667 269.687 27.2267 270.3 27.44C270.38 27.5733 270.487 28.0267 270.62 28.8C270.754 29.5467 270.86 30.4667 270.94 31.56C271.047 32.6267 271.1 33.7067 271.1 34.8C271.1 35.9733 270.967 37.16 270.7 38.36C270.46 39.56 270.02 40.7067 269.38 41.8C268.74 42.8667 267.834 43.8267 266.66 44.68C265.487 45.5067 263.98 46.16 262.14 46.64C260.327 47.12 258.114 47.36 255.5 47.36ZM50.6455 109.68C50.3788 108.827 50.1788 107.813 50.0455 106.64C49.9388 105.467 49.9121 104.293 49.9655 103.12C50.0188 101.947 50.1521 100.973 50.3655 100.2C50.9788 100.04 51.5388 99.6267 52.0455 98.96C52.5521 98.2667 52.8055 97.12 52.8055 95.52C52.8055 94.16 52.6588 93.1067 52.3655 92.36C52.0988 91.5867 51.7921 91.04 51.4455 90.72C51.0988 90.4 50.7921 90.2267 50.5255 90.2C50.2588 89.32 50.0721 88.28 49.9655 87.08C49.8855 85.8533 49.8988 84.64 50.0055 83.44C50.1388 82.24 50.3655 81.2533 50.6855 80.48C51.9388 80.64 53.3388 80.7733 54.8855 80.88C56.4321 80.96 57.9388 81 59.4055 81C61.2455 81 62.9788 80.9867 64.6055 80.96C66.2588 80.9067 67.6055 80.8533 68.6455 80.8C68.2988 81.1733 67.9255 81.8133 67.5255 82.72C67.1521 83.6 66.8455 84.5333 66.6055 85.52C66.3921 86.5067 66.3255 87.3733 66.4055 88.12C67.1255 85.7467 68.4721 83.84 70.4455 82.4C72.4455 80.9333 75.0988 80.2 78.4055 80.2C80.1921 80.2 81.6855 80.4267 82.8855 80.88C84.0855 81.3067 85.0188 82.1867 85.6855 83.52C85.2321 84.0267 84.7788 84.5733 84.3255 85.16C83.8721 85.72 83.4455 86.36 83.0455 87.08L84.0455 87.64C85.2988 85.4267 86.9788 83.64 89.0855 82.28C91.2188 80.8933 93.5255 80.2 96.0055 80.2C98.1388 80.2 99.8321 80.5067 101.085 81.12C102.365 81.7333 103.312 82.9867 103.925 84.88C104.299 85.9733 104.472 87.0933 104.445 88.24C104.419 89.36 104.339 90.4933 104.205 91.64C104.072 92.76 104.005 93.88 104.005 95C104.005 96.2267 104.125 97.2 104.365 97.92C104.605 98.6133 104.912 99.1333 105.285 99.48C105.685 99.8267 106.072 100.067 106.445 100.2C106.685 100.973 106.819 101.947 106.845 103.12C106.899 104.293 106.872 105.467 106.765 106.64C106.659 107.813 106.472 108.827 106.205 109.68C105.192 109.573 103.979 109.44 102.565 109.28C101.152 109.147 99.4321 109.08 97.4055 109.08C95.2188 109.08 93.2855 109.147 91.6055 109.28C89.9255 109.44 88.5921 109.573 87.6055 109.68C87.4721 108.96 87.3655 108.013 87.2855 106.84C87.2055 105.64 87.1788 104.4 87.2055 103.12C87.2588 101.84 87.3655 100.733 87.5255 99.8V94.28H86.0455V99.8C86.2321 100.733 86.3388 101.84 86.3655 103.12C86.4188 104.4 86.4055 105.64 86.3255 106.84C86.2455 108.013 86.1121 108.96 85.9255 109.68C85.2855 109.6 84.6455 109.507 84.0055 109.4C83.3655 109.32 82.6321 109.24 81.8055 109.16C81.0055 109.08 80.0188 109.04 78.8455 109.04C77.3521 109.04 75.8588 109.12 74.3655 109.28C72.8988 109.44 71.6721 109.573 70.6855 109.68C70.5521 108.96 70.4455 108.013 70.3655 106.84C70.2855 105.64 70.2588 104.4 70.2855 103.12C70.3388 101.84 70.4455 100.733 70.6055 99.8V94.28H69.1255V99.8C69.3121 100.733 69.4188 101.84 69.4455 103.12C69.4988 104.4 69.4855 105.64 69.4055 106.84C69.3255 108.013 69.1921 108.96 69.0055 109.68C68.3655 109.6 67.6588 109.507 66.8855 109.4C66.1121 109.32 65.1521 109.24 64.0055 109.16C62.8855 109.107 61.4455 109.08 59.6855 109.08C57.8721 109.08 56.1788 109.147 54.6055 109.28C53.0588 109.413 51.7388 109.547 50.6455 109.68ZM125.2 110.4C113.013 110.4 106.92 105.44 106.92 95.52C106.92 90.1067 108.453 86.1333 111.52 83.6C114.613 81.0667 119.24 79.8 125.4 79.8C131.933 79.8 136.68 81.0533 139.64 83.56C142.626 86.04 144.12 89.7067 144.12 94.56C144.12 100.027 142.546 104.04 139.4 106.6C136.253 109.133 131.52 110.4 125.2 110.4ZM124.44 97.28H126.6V92.92H124.44V97.28ZM145.06 109.68C144.793 108.827 144.593 107.813 144.46 106.64C144.353 105.467 144.326 104.293 144.38 103.12C144.433 101.947 144.566 100.973 144.78 100.2C145.393 100.04 145.953 99.6267 146.46 98.96C146.966 98.2667 147.22 97.12 147.22 95.52C147.22 94.16 147.073 93.1067 146.78 92.36C146.513 91.5867 146.206 91.04 145.86 90.72C145.513 90.4 145.206 90.2267 144.94 90.2C144.673 89.32 144.486 88.28 144.38 87.08C144.3 85.8533 144.313 84.64 144.42 83.44C144.553 82.24 144.78 81.2533 145.1 80.48C146.353 80.64 147.766 80.7733 149.34 80.88C150.913 80.96 152.526 81 154.18 81C155.833 81 157.46 80.9867 159.06 80.96C160.66 80.9067 161.98 80.8533 163.02 80.8C162.673 81.1733 162.3 81.8133 161.9 82.72C161.526 83.6 161.22 84.5333 160.98 85.52C160.766 86.5067 160.7 87.3733 160.78 88.12C161.5 85.7467 162.873 83.84 164.9 82.4C166.926 80.9333 169.686 80.2 173.18 80.2C174.7 80.2 175.993 80.3333 177.06 80.6C178.153 80.84 179.046 81.2933 179.74 81.96C180.46 82.6267 181.02 83.6 181.42 84.88C181.793 85.9733 181.966 87.0933 181.94 88.24C181.913 89.36 181.833 90.4933 181.7 91.64C181.566 92.76 181.5 93.88 181.5 95C181.5 96.2267 181.62 97.2 181.86 97.92C182.1 98.6133 182.406 99.1333 182.78 99.48C183.18 99.8267 183.566 100.067 183.94 100.2C184.18 100.973 184.313 101.947 184.34 103.12C184.393 104.293 184.366 105.467 184.26 106.64C184.153 107.813 183.966 108.827 183.7 109.68C182.686 109.573 181.46 109.44 180.02 109.28C178.58 109.147 176.766 109.08 174.58 109.08C172.606 109.08 170.766 109.147 169.06 109.28C167.38 109.44 166.06 109.573 165.1 109.68C164.966 108.96 164.86 108.013 164.78 106.84C164.7 105.64 164.673 104.4 164.7 103.12C164.753 101.84 164.86 100.733 165.02 99.8V94.28H163.54V99.8C163.726 100.733 163.833 101.84 163.86 103.12C163.913 104.4 163.9 105.64 163.82 106.84C163.74 108.013 163.606 108.96 163.42 109.68C162.78 109.6 162.073 109.507 161.3 109.4C160.553 109.32 159.633 109.24 158.54 109.16C157.446 109.107 156.086 109.08 154.46 109.08C152.46 109.08 150.66 109.147 149.06 109.28C147.486 109.413 146.153 109.547 145.06 109.68ZM202.94 110.36C198.594 110.36 195.047 109.76 192.3 108.56C189.58 107.333 187.58 105.587 186.3 103.32C185.02 101.053 184.38 98.32 184.38 95.12C184.38 91.44 185.06 88.48 186.42 86.24C187.807 84 189.954 82.3733 192.86 81.36C195.767 80.32 199.514 79.8 204.1 79.8C207.514 79.8 210.554 80.16 213.22 80.88C215.914 81.6 218.034 82.6667 219.58 84.08C221.127 85.4667 221.9 87.1867 221.9 89.24C221.9 89.9867 221.78 90.7467 221.54 91.52C221.327 92.2667 220.874 92.9467 220.18 93.56C219.487 94.1733 218.447 94.6667 217.06 95.04C215.674 95.4133 213.82 95.6 211.5 95.6C209.954 95.6 208.554 95.5867 207.3 95.56C206.074 95.5067 204.94 95.4267 203.9 95.32H201.9V98.28H203.86V96.68C209.514 96.4133 215.487 96.4133 221.78 96.68C221.78 99.64 221.14 102.133 219.86 104.16C218.58 106.187 216.567 107.733 213.82 108.8C211.074 109.84 207.447 110.36 202.94 110.36ZM201.9 93.24H203.86V90.92H201.9V93.24ZM236.42 115.92C233.62 115.92 231.34 115.68 229.58 115.2C227.82 114.72 226.46 114.08 225.5 113.28C224.567 112.507 223.913 111.653 223.54 110.72C223.193 109.813 223.02 108.907 223.02 108C223.02 106.347 223.367 105 224.06 103.96C224.78 102.92 225.713 102.16 226.86 101.68C228.033 101.173 229.313 100.92 230.7 100.92C231.287 100.92 231.953 101 232.7 101.16C233.473 101.32 234.247 101.613 235.02 102.04C235.793 102.44 236.487 103.04 237.1 103.84L237.98 103.12C237.153 102.107 236.22 101.333 235.18 100.8C234.14 100.267 233.087 99.9467 232.02 99.84C231.247 99.76 230.513 99.56 229.82 99.24C229.127 98.92 228.5 98.3733 227.94 97.6C227.38 96.8267 226.913 95.7467 226.54 94.36C226.14 92.8667 225.647 91.8133 225.06 91.2C224.5 90.56 223.9 90.2267 223.26 90.2C223.047 89.7467 222.887 89.1067 222.78 88.28C222.673 87.4267 222.62 86.52 222.62 85.56C222.647 84.5733 222.727 83.6267 222.86 82.72C222.993 81.8133 223.18 81.0667 223.42 80.48C224.433 80.56 225.86 80.6667 227.7 80.8C229.567 80.9333 231.647 81 233.94 81C235.673 81 237.353 80.9333 238.98 80.8C240.633 80.6667 241.967 80.56 242.98 80.48C242.553 82.2133 242.38 84.0933 242.46 86.12C242.567 88.1467 242.86 90.2 243.34 92.28C243.82 94.36 244.393 96.36 245.06 98.28L245.02 89.96H243.9C243.607 87.9867 243.513 86.2 243.62 84.6C243.727 83 243.927 81.6267 244.22 80.48C244.913 80.56 245.647 80.64 246.42 80.72C247.22 80.8 248.22 80.8667 249.42 80.92C250.62 80.9733 252.167 81 254.06 81C254.86 81 255.767 80.9733 256.78 80.92C257.82 80.84 258.833 80.76 259.82 80.68C260.833 80.6 261.673 80.5333 262.34 80.48C262.58 81.0667 262.753 81.8133 262.86 82.72C262.993 83.6267 263.06 84.5733 263.06 85.56C263.06 86.52 263.007 87.4267 262.9 88.28C262.793 89.1067 262.633 89.7467 262.42 90.2C261.62 90.2267 261.007 90.6133 260.58 91.36C260.153 92.1067 259.793 93.12 259.5 94.4C259.233 95.6533 258.9 97.0667 258.5 98.64C257.833 101.707 256.967 104.333 255.9 106.52C254.833 108.707 253.46 110.493 251.78 111.88C250.1 113.267 248.007 114.28 245.5 114.92C243.02 115.587 239.993 115.92 236.42 115.92Z" fill="#545045"/>
<path d="M57.7977 49.12C55.9577 48.9067 54.2777 48.7467 52.7577 48.64C51.2643 48.56 49.7843 48.52 48.3177 48.52C47.091 48.52 45.811 48.5333 44.4777 48.56C43.1443 48.6133 41.8643 48.68 40.6377 48.76C39.411 48.84 38.331 48.9333 37.3977 49.04C37.1043 48.2667 36.9043 47.28 36.7977 46.08C36.7177 44.88 36.7177 43.68 36.7977 42.48C36.8777 41.2533 37.051 40.2 37.3177 39.32C37.6377 39.16 37.9843 38.88 38.3577 38.48C38.7577 38.08 39.091 37.4133 39.3577 36.48C39.651 35.5467 39.7977 34.24 39.7977 32.56C39.7977 30.8 39.7177 29.3733 39.5577 28.28C39.3977 27.1867 39.1843 26.3467 38.9177 25.76C38.6777 25.1733 38.4243 24.7733 38.1577 24.56C37.9177 24.3467 37.7043 24.2267 37.5177 24.2C37.251 23.32 37.0643 22.28 36.9577 21.08C36.8777 19.8533 36.891 18.64 36.9977 17.44C37.131 16.24 37.3577 15.2533 37.6777 14.48C38.531 14.5867 39.3977 14.68 40.2777 14.76C41.1843 14.84 41.9843 14.9067 42.6777 14.96C43.371 14.9867 43.7977 15 43.9577 15C45.611 15 47.2377 14.9867 48.8377 14.96C50.4377 14.9067 51.7577 14.8533 52.7977 14.8C52.451 15.1733 52.1043 15.72 51.7577 16.44C51.4377 17.16 51.1977 17.8933 51.0377 18.64C50.8777 19.3867 50.851 20.0133 50.9577 20.52C51.3043 19.48 51.9043 18.4533 52.7577 17.44C53.6377 16.4 54.8377 15.5467 56.3577 14.88C57.8777 14.1867 59.7843 13.84 62.0777 13.84C65.0377 13.84 67.5443 14.4533 69.5977 15.68C71.651 16.9067 73.1977 18.6533 74.2377 20.92C75.3043 23.1867 75.8377 25.88 75.8377 29C75.8377 33.8267 74.8377 37.6 72.8377 40.32C70.8377 43.0133 67.8243 44.36 63.7977 44.36C62.0643 44.36 60.571 44.1467 59.3177 43.72C58.0643 43.32 56.971 42.7733 56.0377 42.08C55.1043 41.3867 54.251 40.6 53.4777 39.72L52.5977 40.52C53.371 41.3733 54.211 42.1467 55.1177 42.84C56.0243 43.5333 57.051 44.1067 58.1977 44.56C58.251 46.5867 58.1177 48.1067 57.7977 49.12ZM56.1577 30.92H58.3177V27.2H56.1577V30.92ZM250.5 44.36C246.527 44.36 243.474 43.84 241.34 42.8C239.207 41.7333 237.82 40.16 237.18 38.08C236.887 37.1467 236.74 36.12 236.74 35C236.767 33.88 236.847 32.6133 236.98 31.2C237.114 29.7867 237.194 28.2133 237.22 26.48H234.62C234.487 25.7333 234.394 24.8933 234.34 23.96C234.287 23.0267 234.287 22.0933 234.34 21.16C234.394 20.2 234.487 19.3467 234.62 18.6C235.314 18.04 235.98 17.4933 236.62 16.96C237.287 16.4 237.874 15.7467 238.38 15C238.887 14.2533 239.234 13.2933 239.42 12.12C240.38 12.2533 241.54 12.3467 242.9 12.4C244.287 12.4533 245.754 12.48 247.3 12.48C248.874 12.4533 250.407 12.4133 251.9 12.36C253.394 12.28 254.714 12.1867 255.86 12.08C256.02 12.5867 256.154 13.0933 256.26 13.6C256.367 14.1067 256.447 14.6 256.5 15.08H265.22C265.354 15.56 265.447 16.28 265.5 17.24C265.554 18.2 265.554 19.2133 265.5 20.28C265.474 21.32 265.38 22.2133 265.22 22.96L254.18 23V31.36H255.34L255.38 24.44C255.967 24.2267 256.687 24.0667 257.54 23.96C258.42 23.8267 259.34 23.76 260.3 23.76C261.26 23.76 262.18 23.8267 263.06 23.96C263.94 24.0667 264.687 24.2267 265.3 24.44C265.38 24.5733 265.487 25.0267 265.62 25.8C265.754 26.5467 265.86 27.4667 265.94 28.56C266.047 29.6267 266.1 30.7067 266.1 31.8C266.1 32.9733 265.967 34.16 265.7 35.36C265.46 36.56 265.02 37.7067 264.38 38.8C263.74 39.8667 262.834 40.8267 261.66 41.68C260.487 42.5067 258.98 43.16 257.14 43.64C255.327 44.12 253.114 44.36 250.5 44.36Z" fill="#E6388D"/>
<path d="M94.9261 44.4C82.7394 44.4 76.6461 39.44 76.6461 29.52C76.6461 24.1067 78.1794 20.1333 81.2461 17.6C84.3394 15.0667 88.9661 13.8 95.1261 13.8C101.659 13.8 106.406 15.0533 109.366 17.56C112.353 20.04 113.846 23.7067 113.846 28.56C113.846 34.0267 112.273 38.04 109.126 40.6C105.979 43.1333 101.246 44.4 94.9261 44.4ZM94.1661 31.28H96.3261V26.92H94.1661V31.28Z" fill="#FFBC00"/>
<path d="M133.774 44.4C129.241 44.4 125.561 43.76 122.734 42.48C119.934 41.1733 117.881 39.36 116.574 37.04C115.294 34.6933 114.654 31.96 114.654 28.84C114.654 25.7467 115.267 23.0933 116.494 20.88C117.747 18.64 119.494 16.92 121.734 15.72C123.974 14.4933 126.587 13.88 129.574 13.88C132.481 13.88 134.734 14.3467 136.334 15.28C137.961 16.1867 138.814 17.9067 138.894 20.44C139.187 19.5067 139.294 18.5733 139.214 17.64C139.161 16.68 139.081 15.7467 138.974 14.84C139.854 14.84 140.854 14.8267 141.974 14.8C143.121 14.7733 144.294 14.7467 145.494 14.72C146.694 14.6667 147.827 14.6267 148.894 14.6C149.961 14.5733 150.867 14.56 151.614 14.56C151.774 15.28 151.894 16.2 151.974 17.32C152.081 18.4133 152.147 19.6133 152.174 20.92C152.201 22.2 152.174 23.4667 152.094 24.72C152.014 25.9733 151.894 27.0933 151.734 28.08C150.961 28.1867 149.974 28.28 148.774 28.36C147.574 28.4133 146.281 28.4533 144.894 28.48C143.507 28.5067 142.121 28.5067 140.734 28.48C139.347 28.4533 138.067 28.4133 136.894 28.36C135.747 28.28 134.827 28.1867 134.134 28.08L134.094 26.6H132.174V31.28H134.094V29.64C139.801 29.3733 145.761 29.3733 151.974 29.64C151.867 32.9733 151.187 35.7333 149.934 37.92C148.707 40.1067 146.787 41.7333 144.174 42.8C141.561 43.8667 138.094 44.4 133.774 44.4Z" fill="#6BBD19"/>
<path d="M153.776 43.68C153.563 43.1467 153.389 42.4667 153.256 41.64C153.123 40.7867 153.043 39.8933 153.016 38.96C153.016 38.0267 153.043 37.1467 153.096 36.32C153.176 35.4667 153.309 34.7733 153.496 34.24C153.896 34.08 154.283 33.8133 154.656 33.44C155.029 33.04 155.336 32.3733 155.576 31.44C155.816 30.48 155.936 29.1067 155.936 27.32C155.936 25.48 155.789 24.1067 155.496 23.2C155.229 22.2933 154.896 21.6667 154.496 21.32C154.123 20.9467 153.789 20.6933 153.496 20.56C153.256 20.1067 153.083 19.4667 152.976 18.64C152.869 17.7867 152.816 16.8667 152.816 15.88C152.843 14.8933 152.923 13.9467 153.056 13.04C153.189 12.1333 153.389 11.3867 153.656 10.8C154.429 10.8533 155.389 10.9333 156.536 11.04C157.683 11.1467 158.923 11.24 160.256 11.32C161.616 11.3733 162.936 11.4 164.216 11.4C166.109 11.4 167.829 11.3467 169.376 11.24C170.949 11.1067 172.296 10.9867 173.416 10.88C173.656 11.6267 173.829 12.3467 173.936 13.04C174.043 13.7067 174.096 14.3867 174.096 15.08C174.096 16.0667 173.963 17.2 173.696 18.48C173.456 19.76 173.203 21.04 172.936 22.32C172.669 23.6 172.536 24.7467 172.536 25.76V26.48C173.416 25.2 174.069 23.5867 174.496 21.64C174.949 19.6667 175.149 17.24 175.096 14.36C175.843 14.4133 176.643 14.4933 177.496 14.6C178.376 14.7067 179.456 14.8 180.736 14.88C182.016 14.96 183.616 15 185.536 15C187.109 15 188.403 14.96 189.416 14.88C190.429 14.8 191.309 14.72 192.056 14.64C192.829 14.5333 193.656 14.44 194.536 14.36C194.749 14.92 194.923 15.6267 195.056 16.48C195.189 17.3067 195.256 18.1867 195.256 19.12C195.283 20.0533 195.256 20.9467 195.176 21.8C195.123 22.6267 195.003 23.32 194.816 23.88C193.483 24.2533 192.336 24.6667 191.376 25.12C190.443 25.5733 189.603 26.0667 188.856 26.6C189.523 28.6267 190.443 30.24 191.616 31.44C192.816 32.6133 194.083 33.5467 195.416 34.24C195.603 34.7733 195.723 35.4533 195.776 36.28C195.856 37.1067 195.883 37.9867 195.856 38.92C195.856 39.8267 195.789 40.7067 195.656 41.56C195.523 42.4133 195.349 43.12 195.136 43.68C194.043 43.5733 192.829 43.44 191.496 43.28C190.163 43.12 188.509 43.04 186.536 43.04C184.349 43.04 182.563 43.08 181.176 43.16C179.789 43.24 178.643 43.32 177.736 43.4C176.856 43.5067 176.043 43.6 175.296 43.68C175.376 42.72 175.443 41.84 175.496 41.04C175.549 40.2133 175.576 39.4533 175.576 38.76C175.576 37.64 175.523 36.6133 175.416 35.68C175.309 34.7467 175.043 33.8667 174.616 33.04C174.189 32.2133 173.496 31.4133 172.536 30.64V34.24H173.976C174.163 34.7733 174.283 35.4667 174.336 36.32C174.416 37.1467 174.443 38.0267 174.416 38.96C174.416 39.8933 174.349 40.7867 174.216 41.64C174.083 42.4667 173.909 43.1467 173.696 43.68C172.576 43.5733 171.176 43.44 169.496 43.28C167.843 43.1467 166.083 43.08 164.216 43.08C162.936 43.08 161.629 43.1067 160.296 43.16C158.989 43.24 157.763 43.32 156.616 43.4C155.469 43.5067 154.523 43.6 153.776 43.68Z" fill="#01B1B9"/>
<path d="M214.581 44.36C210.234 44.36 206.688 43.76 203.941 42.56C201.221 41.3333 199.221 39.5867 197.941 37.32C196.661 35.0533 196.021 32.32 196.021 29.12C196.021 25.44 196.701 22.48 198.061 20.24C199.448 18 201.594 16.3733 204.501 15.36C207.408 14.32 211.154 13.8 215.741 13.8C219.154 13.8 222.194 14.16 224.861 14.88C227.554 15.6 229.674 16.6667 231.221 18.08C232.768 19.4667 233.541 21.1867 233.541 23.24C233.541 23.9867 233.421 24.7467 233.181 25.52C232.968 26.2667 232.514 26.9467 231.821 27.56C231.128 28.1733 230.088 28.6667 228.701 29.04C227.314 29.4133 225.461 29.6 223.141 29.6C221.594 29.6 220.194 29.5867 218.941 29.56C217.714 29.5067 216.581 29.4267 215.541 29.32H213.541V32.28H215.501V30.68C221.154 30.4133 227.128 30.4133 233.421 30.68C233.421 33.64 232.781 36.1333 231.501 38.16C230.221 40.1867 228.208 41.7333 225.461 42.8C222.714 43.84 219.088 44.36 214.581 44.36ZM213.541 27.24H215.501V24.92H213.541V27.24Z" fill="#850DFF"/>
</g>
<defs>
<clipPath id="clip0_0_1">
<rect width="430" height="932" fill="white" transform="translate(-59 -115)"/>
</clipPath>
</defs>
</svg>
